<svg xmlns="http://www.w3.org/2000/svg" viewBox="0 0 960 320" role="img" aria-labelledby="title desc">
  <title id="title">rlnk logo</title>
  <desc id="desc">Wordmark for rlnk, a Rust URL shortener, with an interlocking link and fast redirect arrow icon.</desc>
  <defs>
    <linearGradient id="accent" x1="120" y1="92" x2="246" y2="222" gradientUnits="userSpaceOnUse">
      <stop stop-color="#14b8a6"/>
      <stop offset="1" stop-color="#0f766e"/>
    </linearGradient>
    <linearGradient id="panel" x1="36" y1="44" x2="924" y2="276" gradientUnits="userSpaceOnUse">
      <stop stop-color="#ffffff"/>
      <stop offset="1" stop-color="#f8fafc"/>
    </linearGradient>
  </defs>
  <rect x="48" y="54" width="864" height="226" rx="40" fill="#0f172a" opacity="0.08"/>
  <rect x="38" y="42" width="884" height="236" rx="42" fill="url(#panel)"/>
  <rect x="39" y="43" width="882" height="234" rx="41" fill="none" stroke="#d8e1ea" stroke-width="2"/>
  <circle cx="180" cy="160" r="76" fill="#ecfdf5"/>
  <circle cx="180" cy="160" r="66" fill="none" stroke="#99f6e4" stroke-width="10"/>
  <g fill="none" stroke-linecap="round" stroke-linejoin="round">
    <path d="M135 173l38-32c16-14 40-12 54 4s12 40-4 54l-38 32c-16 14-40 12-54-4s-12-40 4-54z" stroke="#0f172a" stroke-width="16"/>
    <path d="M181 119l-38 32c-16 14-40 12-54-4s-12-40 4-54l38-32c16-14 40-12 54 4s12 40-4 54z" stroke="#0f172a" stroke-opacity="0.14" stroke-width="16"/>
    <path d="M139 173l39-33c13-11 32-10 43 3s10 32-3 43l-39 33c-13 11-32 10-43-3s-10-32 3-43z" stroke="#0f172a" stroke-width="13"/>
    <path d="M172 184l39-33c13-11 32-10 43 3s10 32-3 43l-39 33c-13 11-32 10-43-3s-10-32 3-43z" stroke="url(#accent)" stroke-width="13"/>
    <path d="M215 210l34-34" stroke="#14b8a6" stroke-width="15"/>
    <path d="M229 176h20v20" stroke="#14b8a6" stroke-width="15"/>
  </g>
  <g font-family="system-ui, -apple-system, BlinkMacSystemFont, 'Segoe UI', sans-serif" letter-spacing="0">
    <text x="302" y="176" fill="#0f172a" font-size="96" font-weight="850">rlnk</text>
    <text x="307" y="216" fill="#475569" font-size="27" font-weight="650">tiny, fast Rust URL shortener</text>
  </g>
</svg>
